<?xml version="1.0" encoding="UTF-8" standalone="no"?>
<!DOCTYPE svg PUBLIC "-//W3C//DTD SVG 1.1//EN" "http://www.w3.org/Graphics/SVG/1.1/DTD/svg11.dtd">
<svg width="100%" height="100%" viewBox="0 0 128 117" version="1.1" xmlns="http://www.w3.org/2000/svg" xmlns:xlink="http://www.w3.org/1999/xlink" xml:space="preserve" xmlns:serif="http://www.serif.com/" style="fill-rule:evenodd;clip-rule:evenodd;stroke-linejoin:round;stroke-miterlimit:2;">
    <g transform="matrix(1,0,0,1,-6560.000159,-423.942346)">
        <g transform="matrix(1.333333,0,0,1.333333,6144,0)">
            <g transform="matrix(1,0,0,1,376.9815,369.7376)">
                <path d="M0,-16.69C-2.749,-17.117 -5.618,-17.358 -8.375,-18.049C-11.144,-18.743 -13.8,-19.885 -16.871,-20.958C-17.328,-20.09 -17.815,-19.067 -18.386,-18.095C-20.324,-14.794 -22.087,-11.366 -24.285,-8.246C-33.988,5.53 -53.778,0.544 -61.251,-9.111C-66.156,-15.448 -66.22,-24.371 -61.466,-30.192C-56.532,-36.232 -48.923,-37.668 -41.218,-34.019C-40.744,-33.795 -40.246,-33.624 -39.639,-33.38C-37.384,-36.782 -35.235,-40.18 -32.918,-43.459C-31.633,-45.278 -30.221,-47.063 -28.601,-48.58C-24.313,-52.597 -18.351,-52.821 -13.68,-49.32C-13.084,-48.874 -12.466,-48.425 -11.976,-47.872C-5.171,-40.191 3.435,-38.304 13.273,-39.525C23.35,-40.777 28.271,-35.717 27.438,-25.492C27.066,-20.924 26.179,-16.331 26.428,-11.799C26.71,-6.656 27.587,-1.456 28.948,3.516C31.13,11.491 31.074,19.116 27.15,26.483C23.819,32.736 17.009,36.131 9.992,35.244C2.308,34.273 -2.629,27.657 -1.106,19.828C-0.486,16.636 1.066,13.629 2.151,10.522C2.526,9.448 3.204,8.235 2.994,7.244C2.156,3.289 0.627,-0.552 0.112,-4.533C-0.399,-8.486 0,-12.557 0,-16.69" style="fill:rgb(116,80,35);fill-rule:nonzero;"/>
            </g>
        </g>
    </g>
</svg>
